<svg width="45" height="45" viewBox="0 0 45 45" fill="none" xmlns="http://www.w3.org/2000/svg">
<mask id="mask0_13_120" style="mask-type:alpha" maskUnits="userSpaceOnUse" x="0" y="0" width="45" height="45">
<rect width="45" height="45" fill="#D9D9D9"/>
</mask>
<g mask="url(#mask0_13_120)">
<path d="M15 33.75H30V30H15V33.75ZM15 26.25H30V22.5H15V26.25ZM11.25 41.25C10.2188 41.25 9.33595 40.8828 8.60158 40.1484C7.8672 39.4141 7.50002 38.5312 7.50002 37.5V7.5C7.50002 6.46875 7.8672 5.58594 8.60158 4.85156C9.33595 4.11719 10.2188 3.75 11.25 3.75H26.25L37.5 15V37.5C37.5 38.5312 37.1328 39.4141 36.3985 40.1484C35.6641 40.8828 34.7813 41.25 33.75 41.25H11.25ZM24.375 16.875V7.5H11.25V37.5H33.75V16.875H24.375Z" fill="white"/>
</g>
</svg>
