<svg width="43" height="19" viewBox="0 0 43 19" fill="none" xmlns="http://www.w3.org/2000/svg">
<path d="M10.0417 4.12508V0.541748H42.125V4.12508H10.0417ZM10.0417 11.2917V7.70841H42.125V11.2917H10.0417ZM10.0417 18.4584V14.8751H42.125V18.4584H10.0417ZM3.16667 4.12508C2.51736 4.12508 1.97309 3.95338 1.53385 3.60998C1.09462 3.26657 0.875 2.84105 0.875 2.33341C0.875 1.82578 1.09462 1.40025 1.53385 1.05685C1.97309 0.713449 2.51736 0.541748 3.16667 0.541748C3.81597 0.541748 4.36024 0.713449 4.79948 1.05685C5.23872 1.40025 5.45833 1.82578 5.45833 2.33341C5.45833 2.84105 5.23872 3.26657 4.79948 3.60998C4.36024 3.95338 3.81597 4.12508 3.16667 4.12508ZM3.16667 11.2917C2.51736 11.2917 1.97309 11.12 1.53385 10.7766C1.09462 10.4332 0.875 10.0077 0.875 9.50008C0.875 8.99244 1.09462 8.56692 1.53385 8.22352C1.97309 7.88012 2.51736 7.70841 3.16667 7.70841C3.81597 7.70841 4.36024 7.88012 4.79948 8.22352C5.23872 8.56692 5.45833 8.99244 5.45833 9.50008C5.45833 10.0077 5.23872 10.4332 4.79948 10.7766C4.36024 11.12 3.81597 11.2917 3.16667 11.2917ZM3.16667 18.4584C2.51736 18.4584 1.97309 18.2867 1.53385 17.9433C1.09462 17.5999 0.875 17.1744 0.875 16.6667C0.875 16.1591 1.09462 15.7336 1.53385 15.3902C1.97309 15.0468 2.51736 14.8751 3.16667 14.8751C3.81597 14.8751 4.36024 15.0468 4.79948 15.3902C5.23872 15.7336 5.45833 16.1591 5.45833 16.6667C5.45833 17.1744 5.23872 17.5999 4.79948 17.9433C4.36024 18.2867 3.81597 18.4584 3.16667 18.4584Z" fill="#1C1B1F"/>
</svg>
