<svg width="763" height="787" viewBox="0 0 763 787" fill="none" xmlns="http://www.w3.org/2000/svg">
<path d="M712.313 158.869C743.609 115.631 762.341 70.7402 762.432 38.6688C762.383 28.2833 760.376 20.1671 756.535 14.121C756.133 13.3807 755.025 11.4463 753.073 9.53958C751.132 7.55262 749.388 6.48974 749.011 6.2748C742.867 2.04186 734.966 0 724.901 0C693.905 0.0477771 650.399 19.375 608.496 51.7292C574.625 77.8895 540.751 114.731 493.861 165.748C485.906 174.401 477.536 183.498 468.683 193.038L377.858 164.942L378.131 164.675C381.905 160.738 384.054 155.323 384.002 150.002C384.054 144.386 381.854 138.971 378.066 135.075L361.664 118.119C357.875 114.181 352.641 111.925 347.227 111.925C341.759 111.925 336.657 114.101 332.842 118.079L308.303 143.42L295.311 139.416C298.11 135.747 299.659 131.166 299.606 126.652C299.658 120.954 297.524 115.647 293.684 111.71L277.203 94.6997C273.441 90.8036 268.233 88.5726 262.767 88.5726C257.325 88.5726 252.235 90.7636 248.46 94.7267L225.94 117.958L133.591 89.4061C131.522 88.774 129.334 88.4395 126.99 88.4395C120.43 88.5126 114.351 91.033 109.912 95.5746L77.4449 129.098C73.7599 132.9 71.6906 138.046 71.7304 142.923C71.6133 150.111 75.4666 156.748 81.6371 160.161L275.838 272.138C276.788 272.689 279.535 274.785 280.551 275.833L335.915 332.964C284.13 389.275 237.994 443.814 202.04 491.256C198.681 495.664 195.505 499.962 192.38 504.222L42.1414 490.14C41.4124 490.042 40.5915 489.969 39.5503 489.969C32.6635 490.117 25.9336 492.926 20.9355 497.91L5.79526 513.522C2.05909 517.299 -0.0500563 522.404 0.00226457 527.335C-0.114549 534.86 4.29779 541.819 10.9242 544.869L116.616 596.679C117.526 597.148 119.896 598.882 120.664 599.675L129.439 608.664C126.692 616.645 125.299 623.564 125.22 629.639C125.194 637.766 127.733 644.727 132.589 649.739L132.967 650.076L133.07 650.149C138.056 655.134 144.513 657.674 152.506 657.674C158.26 657.575 164.899 656.169 172.658 653.348L181.562 662.525C182.252 663.278 183.905 665.669 184.335 666.623L234.427 775.47C237.487 782.416 244.086 786.917 251.272 786.917H251.375C256.349 786.917 261.1 784.861 264.732 781.1L280.236 765.044C284.83 760.045 287.538 753.153 287.642 745.884C287.642 744.999 287.604 744.313 287.576 743.934L273.895 588.303C278.009 585.105 282.175 581.814 286.457 578.374C332.488 541.209 385.341 493.55 439.794 440.181L495.198 497.42C496.096 498.306 498.192 501.143 498.805 502.324L607.087 702.403C610.394 708.866 616.76 712.857 623.816 712.857C628.854 712.857 633.644 710.801 637.316 706.986L670.015 673.26C674.26 668.68 676.642 662.457 676.707 655.659C676.707 653.375 676.395 651.159 675.822 649.076L648.159 553.732L670.666 530.461C674.454 526.577 676.603 521.176 676.603 515.628C676.603 510.051 674.507 504.811 670.693 500.82L654.186 483.797C650.412 479.887 645.19 477.657 639.815 477.657C635.259 477.657 630.808 479.228 627.331 482.065L623.464 468.709L648.028 443.355C651.803 439.445 653.952 434.043 653.952 428.48C653.952 422.878 651.855 417.625 648.028 413.688L631.599 396.73C627.811 392.766 622.553 390.522 617.15 390.522C611.722 390.522 606.462 392.792 602.752 396.703L602.583 396.875L575.375 303.144C584.774 293.9 593.69 285.099 602.218 276.809C651.471 228.571 687.034 193.748 712.313 158.869Z" fill="url(#paint0_linear_169_9)"/>
<defs>
<linearGradient id="paint0_linear_169_9" x1="326.75" y1="753.573" x2="348.398" y2="-52.362" gradientUnits="userSpaceOnUse">
<stop stop-color="#FF9300"/>
<stop offset="1" stop-color="#FFD702"/>
</linearGradient>
</defs>
</svg>
