<svg width="562" height="467" viewBox="0 0 562 467" fill="none" xmlns="http://www.w3.org/2000/svg">
<path d="M337.461 39.4599C364.833 92.1293 345.952 157.591 316.083 203.664C323.475 213.059 332.266 223.153 340.857 231.448C355.942 213.159 371.626 194.87 388.708 177.08C366.731 131.007 348.25 61.5471 388.109 17.7725C404.292 1.48203 430.465 -4.81431 452.742 3.98057C489.404 17.7726 504.488 57.5494 505.387 94.4279C505.088 140.201 485.708 178.479 462.132 214.858C464.729 219.455 468.625 223.153 472.422 227.151L473.82 226.651C492.601 206.663 520.572 195.169 547.844 204.864C556.435 208.262 564.926 216.557 567.523 225.752C571.519 238.044 567.024 250.737 558.633 259.832C539.852 280.819 508.284 281.819 481.812 275.323C474.419 273.624 467.726 269.926 460.734 266.728C453.341 285.017 459.035 305.905 465.529 322.495C465.529 323.395 465.529 323.994 465.029 324.194C458.436 316.499 455.339 306.405 453.042 296.51C450.844 285.917 450.444 272.724 452.842 262.13L438.257 249.338L436.858 249.838C422.373 266.428 407.788 283.618 392.204 298.809C410.485 335.688 428.567 377.763 416.979 422.337C410.485 443.225 391.405 464.413 368.529 466.711C340.658 468.41 316.183 451.22 302.397 427.734C275.625 383.16 288.412 319.397 310.089 276.222C302.197 267.327 293.306 257.933 285.415 249.638C270.33 265.628 254.347 283.418 238.763 298.809C256.145 334.188 272.928 373.166 265.835 415.741C261.539 435.829 246.455 456.117 226.775 464.113C202.6 472.708 177.826 461.015 160.743 443.525C123.782 406.047 129.975 340.585 148.256 296.211L156.248 276.722L155.749 275.023L132.073 249.838H130.874L116.389 262.73C120.685 283.818 115.89 305.605 106.1 323.095C105.301 323.695 104.701 324.494 103.802 324.294C104.102 318.298 108.098 313.401 108.897 307.704C112.593 295.111 113.192 279.72 108.597 267.427C103.203 269.426 97.5087 272.324 91.8146 274.223C65.3419 282.219 30.2781 283.118 10.2988 261.031C1.80753 252.536 -2.18834 239.843 1.20815 227.55C4.10516 215.857 15.6932 206.663 26.7817 203.564C53.5541 196.968 77.4294 209.861 96.0102 227.55C117.588 206.163 135.27 181.477 149.255 156.092C160.044 135.804 168.336 114.017 171.432 90.0305L171.133 89.7307C160.643 132.906 132.473 169.584 101.704 203.864L100.805 204.164C78.0288 178.179 66.9403 146.997 59.5479 114.316C52.1555 77.4378 56.9506 36.5616 87.1194 12.4756C102.803 0.48261 124.481 -2.61559 143.561 3.98057C183.919 18.8719 197.705 62.3466 197.306 102.123C196.207 140.501 181.122 173.082 162.342 204.264C169.534 213.759 177.726 223.153 186.317 232.248L187.116 232.048C202.201 213.359 218.684 194.87 235.566 177.18C216.386 135.104 197.306 79.3367 222.979 34.4628C234.967 12.1758 258.343 -2.4157 283.916 0.982319C306.093 3.18104 326.572 19.1717 337.461 39.4599ZM416.279 9.07761C403.992 14.5744 397.998 27.4669 396.1 39.4599C390.906 78.4373 403.692 114.117 420.575 146.198L421.174 146.498C433.462 133.305 443.352 119.313 451.943 104.422C466.727 82.6348 471.323 48.6546 458.436 24.2688C451.044 8.27807 431.464 2.88122 416.279 9.07761ZM265.136 8.27808C246.555 14.9742 241.46 34.9626 240.561 52.3524C240.561 87.2321 251.15 117.814 266.834 146.398H267.633C281.918 130.707 293.806 113.217 302.597 94.9277C313.985 73.74 314.784 43.2577 302.597 21.9701C295.205 8.5779 279.021 3.78069 265.136 8.27808ZM136.169 9.97709C127.578 5.77953 115.39 5.77953 107.099 9.97709C97.3089 14.9742 92.2142 24.8684 89.1174 34.3629C81.725 68.3431 92.8135 102.323 105.301 132.106C107.898 137.003 110.096 142.7 113.592 146.698C130.175 128.108 144.46 108.32 152.951 86.3327C160.843 66.2443 159.545 40.2595 148.656 21.9701C145.759 17.1729 140.964 12.5756 136.169 9.97709ZM324.874 89.8306C317.482 123.811 297.802 152.494 275.825 180.178C255.945 205.064 233.368 227.051 212.29 250.637C179.224 290.814 159.045 337.187 157.347 390.456C160.743 366.67 168.236 344.383 178.425 323.295C197.805 283.518 229.073 247.739 262.139 214.258C280.12 193.97 294.605 172.582 306.293 149.696C315.184 130.707 322.876 111.318 324.874 89.8306ZM479.214 90.1304C476.317 103.323 471.223 115.616 465.229 127.609C440.754 173.382 400.596 212.259 365.032 251.736C332.866 291.713 313.486 337.187 311.288 389.256C320.978 328.592 355.342 276.022 400.696 230.249C430.565 199.367 455.439 164.787 470.224 126.409C473.82 114.716 478.415 103.023 479.214 90.1304ZM555.236 221.354C538.753 213.059 515.877 216.257 499.194 221.954C492.601 225.052 485.208 228.45 480.913 235.146C489.804 245.14 500.792 250.837 513.379 252.636C530.961 254.935 550.041 253.136 561.829 239.144C563.028 236.645 564.127 233.147 563.028 230.049C561.13 226.251 558.633 223.353 555.236 221.354ZM73.4336 223.953C55.1524 216.157 27.8806 212.159 10.1989 224.252C6.80237 227.65 4.50474 232.348 5.9033 237.345C9.1 244.74 16.6922 248.838 23.8847 251.037C45.7621 257.633 71.1359 253.935 87.0195 237.045C89.9165 233.847 84.5221 231.848 83.0236 229.549C83.1235 229.649 73.4336 223.953 73.4336 223.953ZM359.039 330.69C341.057 350.179 327.671 372.766 323.675 398.451C321.677 417.94 324.874 436.829 337.661 450.521C345.952 457.916 357.34 460.515 368.429 457.717C384.113 454.019 390.906 437.428 392.704 423.437C395.801 387.358 381.615 357.075 359.938 330.99L359.039 330.69ZM205.597 330.99C185.418 352.178 170.633 377.263 169.434 407.046C170.234 425.635 173.131 446.223 191.312 455.418C200.902 461.414 216.086 459.715 224.877 452.819C240.861 439.127 241.66 415.941 238.263 395.353C233.468 371.267 222.679 349.28 205.597 330.99Z" fill="#F9A721"/>
</svg>
